<?xml version="1.0" encoding="UTF-8" standalone="no"?>
<svg width="24px" height="24px" viewBox="0 0 24 24" version="1.1" xmlns="http://www.w3.org/2000/svg" xmlns:xlink="http://www.w3.org/1999/xlink">
    <!-- Generator: Sketch 50.2 (55047) - http://www.bohemiancoding.com/sketch -->
    <title>icon-wallet</title>
    <desc>Created with Sketch.</desc>
    <defs></defs>
    <g id="Page-1" stroke="none" stroke-width="1" fill="none" fill-rule="evenodd" stroke-linecap="square">
        <g id="icons" transform="translate(-718.000000, 1.000000)" stroke="#111111" stroke-width="2">
            <g id="icon-wallet" transform="translate(719.000000, 0.000000)">
                <g id="Group">
                    <path d="M0,8 L3,8" id="Shape"></path>
                    <path d="M19,8 L22,8" id="Shape"></path>
                    <path d="M0,18 L3,18" id="Shape"></path>
                    <path d="M7,8 L9,8" id="Shape"></path>
                    <path d="M13,8 L15,8" id="Shape"></path>
                    <path d="M7,18 L9,18" id="Shape"></path>
                    <path d="M13,18 L15,18" id="Shape"></path>
                    <path d="M19,18 L22,18" id="Shape"></path>
                    <path d="M22,4 L2,4 C0.895,4 0,3.105 0,2 L0,19 C0,20.657 1.343,22 3,22 L22,22 L22,4 Z" id="Shape"></path>
                    <path d="M18,1 L18,0 L2,0 C0.895,0 0,0.895 0,2 C0,3.105 0.895,4 2,4" id="Shape"></path>
                </g>
            </g>
        </g>
    </g>
</svg>