<?xml version="1.0" encoding="UTF-8" standalone="no"?>
<svg width="46px" height="46px" viewBox="0 0 46 46" version="1.1" xmlns="http://www.w3.org/2000/svg" xmlns:xlink="http://www.w3.org/1999/xlink">
    <!-- Generator: Sketch 50.2 (55047) - http://www.bohemiancoding.com/sketch -->
    <title>icon-add-user-2</title>
    <desc>Created with Sketch.</desc>
    <defs></defs>
    <g id="Page-1" stroke="none" stroke-width="1" fill="none" fill-rule="evenodd" stroke-linecap="square">
        <g id="icons" transform="translate(-911.000000, 0.000000)" stroke="#111111" stroke-width="2">
            <g id="icon-add-user-2" transform="translate(912.000000, 1.000000)">
                <g id="Group">
                    <path d="M20,24 C14.477,24 10,17.523 10,12 L10,10 C10,4.477 14.477,0 20,0 C25.523,0 30,4.477 30,10 L30,12 C30,17.523 25.523,24 20,24 Z" id="Shape"></path>
                    <path d="M27.821,29.571 C25.475,29.227 22.851,29 20,29 C13.712,29 8.523,30.098 5.007,31.144 C2.034,32.028 0,34.755 0,37.856 L0,42 L22,42" id="Shape"></path>
                    <circle id="Oval" cx="35" cy="35" r="9"></circle>
                    <path d="M35,32 L35,38" id="Shape"></path>
                    <path d="M32,35 L38,35" id="Shape"></path>
                </g>
            </g>
        </g>
    </g>
</svg>