<?xml version="1.0" encoding="UTF-8" standalone="no"?>
<svg width="22px" height="23px" viewBox="0 0 22 23" version="1.1" xmlns="http://www.w3.org/2000/svg" xmlns:xlink="http://www.w3.org/1999/xlink">
    <!-- Generator: Sketch 50.2 (55047) - http://www.bohemiancoding.com/sketch -->
    <title>icon-add-user</title>
    <desc>Created with Sketch.</desc>
    <defs></defs>
    <g id="Page-1" stroke="none" stroke-width="1" fill="none" fill-rule="evenodd" stroke-linecap="square">
        <g id="icons" transform="translate(-767.000000, 1.000000)" stroke="#111111" stroke-width="2">
            <g id="icon-add-user" transform="translate(768.000000, 0.000000)">
                <g id="Group">
                    <path d="M9,12 C6.176,12 3.671,12.638 2.025,13.193 C0.81,13.604 0,14.749 0,16.032 L0,20 C0,20 9.958,20 10,20" id="Shape"></path>
                    <path d="M9,12 C6.239,12 4,8.761 4,6 L4,5 C4,2.239 6.239,0 9,0 C11.761,0 14,2.239 14,5 L14,6 C14,8.761 11.761,12 9,12 Z" id="Shape"></path>
                    <path d="M17,15 L17,21" id="Shape"></path>
                    <path d="M14,18 L20,18" id="Shape"></path>
                </g>
            </g>
        </g>
    </g>
</svg>