<svg width="140" height="26" xmlns="http://www.w3.org/2000/svg"><g fill-rule="nonzero" fill="none"><path d="M.17610063 25.5910112V7.39101124c0-5.14157304 3.81551363-5.3752809 7.8951782-5.3752809 1.58490566 0 4.16771487.05842696 6.01677147.14606741v2.54157304H7.98322851c-3.87421383 0-4.49056604.73033708-4.49056604 4.08988764v3.50561797H13.6184486v2.6H3.46331237v10.6629214H.17610063v.0292134zM15.9958071 7.6247191h3.1111111v17.9662921h-3.1111111zM24.6247379 25.5910112h-3.081761V12.094382c0-1.1101123.0293501-2.13258425.1174005-3.18426964 2.0545073-.93483146 4.8134171-1.51910112 8.1593291-1.51910112 6.2515723 0 6.8679245 2.92134836 6.8679245 6.60224716v11.5977528h-3.1111111V14.4314607c0-3.1550562-.557652-4.52808991-4.7253669-4.52808991-1.3501048 0-3.1698113.29213481-4.1383647.75955051-.0587002.7887641-.0880504 1.7820225-.0880504 2.6292135v12.2988764zM39.5345912 8.00449438c1.9958071-.32134831 4.2264151-.64269663 6.8092243-.64269663 3.903564 0 7.0440252 1.02247191 7.0440252 5.55056185v8.2089887c0 1.1101124-.0293501 2.1325843-.1174004 3.1842697-2.0838575 1.0808989-4.6666667 1.4898876-7.7777778 1.4898876-4.8721174 0-6.9266248-1.6651685-6.9266248-5.4629213 0-3.1258427 1.3501049-5.0831461 4.6666667-5.6089888 2.1132075-.3213483 4.6079665-.4089888 7.1027254-.4966292v-.4382023c0-2.7168539-1.0566038-3.94382018-4.4025158-3.94382018-2.1132075 0-4.2557652.23370788-6.163522.49662918l-.2348008-2.33707862zm6.3689727 15.42471912c1.379455 0 3.0230608-.1460674 4.3731657-.7303371.0587002-.788764.0880503-1.811236.0880503-2.6292135V16.388764c-1.8490566.058427-4.2557652.0876405-5.9580713.4674158-1.966457.4382022-2.7589099 1.1393258-2.7589099 3.4179775 0 2.541573 1.379455 3.1550562 4.2557652 3.1550562zM58.9056604 25.5910112h-3.1111111V12.094382c0-1.1101123.0293501-2.13258425.1174004-3.18426964 2.0545073-.93483146 4.8134172-1.51910112 8.1593291-1.51910112 6.2515724 0 6.8679246 2.92134836 6.8679246 6.60224716v11.5977528h-3.1111112V14.4314607c0-3.1550562-.5576519-4.52808991-4.7253668-4.52808991-1.3501049 0-3.1698114.29213481-4.1383648.75955051-.0587002.7887641-.0880503 1.7820225-.0880503 2.6292135v12.2988764h.0293501zM85.4968553 25.2404494c-1.4968553.3213484-3.081761.5842697-5.1362683.5842697-6.0461216 0-7.1027254-4.3820225-7.1027254-9.4067416 0-5.8719101 1.3501049-9.02696626 7.9245283-9.02696626 1.7316562 0 3.1111111.23370786 4.2851153.55505618l-.2641509 2.30786518c-.8805031-.1752809-2.0545073-.32134833-3.0524109-.32134833-5.2243187 0-5.7526205 1.66516853-5.7526205 6.48539323 0 4.5573034.3228511 6.8067416 5.7232704 6.8067416.9685535 0 2.1132075-.2044944 3.081761-.3797753l.293501 2.3955056zM86.7589099 16.5932584c0-6.5146067 1.9958071-9.23146065 7.9538784-9.23146065 6.2809227 0 7.8364777 3.30112355 7.8364777 8.41348315 0 .4674157 0 1.0516854-.0587 1.5191011-2.054507.3505618-6.3396226.7595506-8.8637316.8764045l-3.7568134.1752809c.2641509 3.5932584 1.702306 4.9662922 5.4297694 4.9662922 2.3773584 0 4.5786163-.2337079 6.4276726-.4966293l.264151 2.3662922c-2.025157.3213483-4.2264148.6134831-7.6603771.6134831-6.0167715.0292135-7.572327-3.8853932-7.572327-9.2022472zm7.2494758-.6426966c1.4675053-.058427 3.903564-.2629214 5.3710692-.4674157.0293501-.2921349.0293501-.7595506.0293501-1.0808989 0-2.8921348-1.2033543-4.61573035-4.6960167-4.61573035-4.197065 0-4.9308177 2.33707865-4.9308177 6.33932585l4.2264151-.1752809z" fill="#202632"/><path fill="#14B47B" d="M104.867925 7.6247191h3.111111v17.9662921h-3.111111zM115.844864 2.54157303V7.6247191h3.903564v2.36629214h-3.903564V20.7123596c0 2.1910112.821803 2.6876404 2.75891 2.6876404.381551 0 .763102-.0292135 1.144654-.058427l.234801 2.2786517c-.704403.116854-1.614256.2337079-2.289309.2337079-3.492662 0-4.960167-1.4898877-4.960167-4.7910113V9.99101124h-3.169812V7.6247191h3.169812V3.06741573l3.111111-.5258427zM104.867925 5.75505618V3.06741573l3.111111-.5258427v3.21348315z"/><path fill="#202632" d="M15.9958071 5.75505618V3.06741573l3.1111111-.5258427v3.21348315z"/><g fill="#14B47B"><path d="M130.60796635 1.86966292l-5.69392034 1.51910112-2.25995807 3.88539326.41090147 1.51910113.41090147 1.57752807 3.81551363 2.1910113 3.31656184-.8764045V1.86966292zm-5.34171908 7.12808989c-.41090146.11685393-.85115304-.14606742-.96855346-.55505618-.11740042-.40898876.14675053-.84719101.557652-.96404494.41090146-.11685394.85115303.14606741.96855345.55505618.11740042.43820224-.14675052.84719101-.55765199.96404494zM131.89937096 1.51910112V11.305618l7.68972744-2.04494384-2.4360587-9.14382023z"/></g></g></svg>
