<?xml version="1.0" encoding="UTF-8" standalone="no"?>
<svg width="24px" height="23px" viewBox="0 0 24 23" version="1.1" xmlns="http://www.w3.org/2000/svg" xmlns:xlink="http://www.w3.org/1999/xlink">
    <!-- Generator: Sketch 50.2 (55047) - http://www.bohemiancoding.com/sketch -->
    <title>icon-calendar</title>
    <desc>Created with Sketch.</desc>
    <defs></defs>
    <g id="Page-1" stroke="none" stroke-width="1" fill="none" fill-rule="evenodd" stroke-linecap="square">
        <g id="icons" transform="translate(-382.000000, 1.000000)">
            <g id="icon-calendar" transform="translate(383.000000, 0.000000)">
                <g id="Group">
                    <rect id="Rectangle-path" stroke="#111111" stroke-width="2" x="4" y="10" width="2" height="1"></rect>
                    <rect id="Rectangle-path" stroke="#111111" stroke-width="2" x="10" y="10" width="2" height="1"></rect>
                    <rect id="Rectangle-path" stroke="#111111" stroke-width="2" x="4" y="15" width="2" height="1"></rect>
                    <rect id="Rectangle-path" stroke="#111111" stroke-width="2" x="10" y="15" width="2" height="1"></rect>
                    <rect id="Rectangle-path" stroke="#111111" stroke-width="2" x="16" y="10" width="2" height="1"></rect>
                    <rect id="Rectangle-path" fill="#111111" fill-rule="nonzero" x="4" y="10" width="2" height="1"></rect>
                    <rect id="Rectangle-path" fill="#111111" fill-rule="nonzero" x="10" y="10" width="2" height="1"></rect>
                    <rect id="Rectangle-path" fill="#111111" fill-rule="nonzero" x="4" y="15" width="2" height="1"></rect>
                    <rect id="Rectangle-path" fill="#111111" fill-rule="nonzero" x="10" y="15" width="2" height="1"></rect>
                    <rect id="Rectangle-path" fill="#111111" fill-rule="nonzero" x="16" y="10" width="2" height="1"></rect>
                    <rect id="Rectangle-path" stroke="#111111" stroke-width="2" x="0" y="2" width="22" height="19" rx="2"></rect>
                    <path d="M5,0 L5,4" id="Shape" stroke="#111111" stroke-width="2"></path>
                    <path d="M11,0 L11,4" id="Shape" stroke="#111111" stroke-width="2"></path>
                    <path d="M17,0 L17,4" id="Shape" stroke="#111111" stroke-width="2"></path>
                </g>
            </g>
        </g>
    </g>
</svg>