<?xml version="1.0" encoding="UTF-8" standalone="no"?>
<svg width="24px" height="24px" viewBox="0 0 24 24" version="1.1" xmlns="http://www.w3.org/2000/svg" xmlns:xlink="http://www.w3.org/1999/xlink">
    <!-- Generator: Sketch 50.2 (55047) - http://www.bohemiancoding.com/sketch -->
    <title>icon-world</title>
    <desc>Created with Sketch.</desc>
    <defs></defs>
    <g id="Page-1" stroke="none" stroke-width="1" fill="none" fill-rule="evenodd" stroke-linecap="square">
        <g id="icons" transform="translate(-502.000000, 1.000000)" stroke="#111111" stroke-width="2">
            <g id="icon-world" transform="translate(503.000000, 0.000000)">
                <g id="Group">
                    <path d="M4.704,1.979 C5.398,2.492 5.961,3.143 6.471,3.999 C6.917,4.746 7.908,6.826 7,8 C5.973,9.328 3,9.776 3,11 C3,11.921 4.304,12.972 5,14 C6.047,15.546 5.571,17.044 5,18 C4.704,18.496 4.231,18.92 3.707,19.234" id="Shape"></path>
                    <path d="M19.668,4.227 C17.509,5.262 14.542,5.961 14,6 C12.955,6.075 12.8,5.216 12,4 C11.4,3.088 10,1.947 10,1 C10,0.629 10.036,0.328 10.131,0.034" id="Shape"></path>
                    <circle id="Oval" cx="11" cy="11" r="11"></circle>
                    <path d="M18.014,11.903 C18.056,14.987 14.042,18.833 12,18 C10.21,17.27 11.473,15.862 11.014,11.903 C10.823,10.257 12.581,8.903 14.514,8.903 C16.447,8.903 17.992,10.247 18.014,11.903 Z" id="Shape"></path>
                </g>
            </g>
        </g>
    </g>
</svg>